<svg width="28" height="28" viewBox="0 0 28 28" fill="none" xmlns="http://www.w3.org/2000/svg">
<path d="M22.1667 3.5L5.83333 3.5C4.55 3.5 3.5 4.55 3.5 5.83333L3.5 22.1667C3.5 23.45 4.55 24.5 5.83333 24.5L22.1667 24.5C23.45 24.5 24.5 23.45 24.5 22.1667L24.5 5.83333C24.5 4.55 23.45 3.5 22.1667 3.5ZM15.1667 19.8333L9.33333 19.8333C8.69167 19.8333 8.16667 19.3083 8.16667 18.6667C8.16667 18.025 8.69167 17.5 9.33333 17.5L15.1667 17.5C15.8083 17.5 16.3333 18.025 16.3333 18.6667C16.3333 19.3083 15.8083 19.8333 15.1667 19.8333ZM18.6667 15.1667L9.33333 15.1667C8.69167 15.1667 8.16667 14.6417 8.16667 14C8.16667 13.3583 8.69167 12.8333 9.33333 12.8333L18.6667 12.8333C19.3083 12.8333 19.8333 13.3583 19.8333 14C19.8333 14.6417 19.3083 15.1667 18.6667 15.1667ZM18.6667 10.5L9.33333 10.5C8.69167 10.5 8.16667 9.975 8.16667 9.33333C8.16667 8.69167 8.69167 8.16667 9.33333 8.16667L18.6667 8.16667C19.3083 8.16667 19.8333 8.69167 19.8333 9.33333C19.8333 9.975 19.3083 10.5 18.6667 10.5Z" fill="#379AE6"/>
</svg>
