<svg width="28" height="28" viewBox="0 0 28 28" fill="none" xmlns="http://www.w3.org/2000/svg">
<path d="M18.6663 4.66665C18.6663 3.37165 19.7047 2.33331 20.9997 2.33331C22.2947 2.33331 23.333 3.37165 23.333 4.66665C23.333 5.96165 22.2947 6.99998 20.9997 6.99998C19.7047 6.99998 18.6663 5.96165 18.6663 4.66665ZM23.333 24.5L23.333 18.6666L24.628 18.6666C25.4213 18.6666 25.9813 17.885 25.7363 17.1266L23.2863 9.76498C23.1303 9.30031 22.8325 8.89623 22.4349 8.60954C22.0373 8.32285 21.5599 8.16796 21.0697 8.16665H20.9297C20.4391 8.1662 19.9608 8.32041 19.5629 8.60734C19.1649 8.89428 18.8675 9.29935 18.713 9.76498L17.7097 12.775C18.9697 13.475 19.833 14.7933 19.833 16.3333L19.833 25.6666H22.1663C22.808 25.6666 23.333 25.1416 23.333 24.5ZM14.583 13.4166C15.5513 13.4166 16.333 12.635 16.333 11.6666C16.333 10.6983 15.5513 9.91665 14.583 9.91665C13.6147 9.91665 12.833 10.6983 12.833 11.6666C12.833 12.635 13.6147 13.4166 14.583 13.4166ZM6.41634 6.99998C7.71134 6.99998 8.74967 5.96165 8.74967 4.66665C8.74967 3.37165 7.71134 2.33331 6.41634 2.33331C5.12134 2.33331 4.08301 3.37165 4.08301 4.66665C4.08301 5.96165 5.12134 6.99998 6.41634 6.99998ZM8.74967 24.5L8.74967 17.5H9.33301C9.97467 17.5 10.4997 16.975 10.4997 16.3333L10.4997 10.5C10.4997 9.21665 9.44967 8.16665 8.16634 8.16665L4.66634 8.16665C3.38301 8.16665 2.33301 9.21665 2.33301 10.5L2.33301 16.3333C2.33301 16.975 2.85801 17.5 3.49967 17.5H4.08301L4.08301 24.5C4.08301 25.1416 4.60801 25.6666 5.24967 25.6666H7.58301C8.22467 25.6666 8.74967 25.1416 8.74967 24.5ZM11.6663 16.3333V19.8333C11.6663 20.475 12.1913 21 12.833 21V24.5C12.833 25.1416 13.358 25.6666 13.9997 25.6666H15.1663C15.808 25.6666 16.333 25.1416 16.333 24.5V21C16.9747 21 17.4997 20.475 17.4997 19.8333V16.3333C17.4997 15.3766 16.7063 14.5833 15.7497 14.5833H13.4163C12.4597 14.5833 11.6663 15.3766 11.6663 16.3333Z" fill="#0557A8"/>
</svg>
