<svg width="28" height="28" viewBox="0 0 28 28" fill="none" xmlns="http://www.w3.org/2000/svg">
<path d="M5.83349 15.3767L5.83349 18.655C5.83349 19.5067 6.30016 20.3 7.04682 20.7083L12.8802 23.8933C13.5802 24.2783 14.4202 24.2783 15.1202 23.8933L20.9535 20.7083C21.7002 20.3 22.1668 19.5067 22.1668 18.655V15.3767L15.1202 19.2267C14.4202 19.6117 13.5802 19.6117 12.8802 19.2267L5.83349 15.3767ZM12.8802 4.10666L3.04516 9.47333C2.24016 9.91666 2.24016 11.0833 3.04516 11.5267L12.8802 16.8933C13.5802 17.2783 14.4202 17.2783 15.1202 16.8933L24.5002 11.7717V18.6667C24.5002 19.3083 25.0252 19.8333 25.6668 19.8333C26.3085 19.8333 26.8335 19.3083 26.8335 18.6667V11.1883C26.8335 10.7567 26.6002 10.3717 26.2268 10.1617L15.1202 4.10666C14.7755 3.92282 14.3908 3.82666 14.0002 3.82666C13.6095 3.82666 13.2249 3.92282 12.8802 4.10666Z" fill="#0557A8"/>
</svg>
