<svg width="28" height="28" viewBox="0 0 28 28" fill="none" xmlns="http://www.w3.org/2000/svg">
<g clip-path="url(#clip0_110_810)">
<path d="M25.6667 3.5L2.33333 3.5C1.05 3.5 0 4.55 0 5.83333L0 22.1667C0 23.45 1.05 24.5 2.33333 24.5L25.6667 24.5C26.95 24.5 27.9883 23.45 27.9883 22.1667L28 5.83333C28 4.55 26.95 3.5 25.6667 3.5ZM10.5 9.33333C12.425 9.33333 14 10.9083 14 12.8333C14 14.7583 12.425 16.3333 10.5 16.3333C8.575 16.3333 7 14.7583 7 12.8333C7 10.9083 8.575 9.33333 10.5 9.33333ZM2.42667 22.1667C4.03667 19.3783 7.04667 17.5 10.5 17.5C13.9533 17.5 16.9633 19.3783 18.5733 22.1667L2.42667 22.1667ZM20.825 16.345H22.155C22.5167 16.345 22.8667 16.52 23.0883 16.8117L23.8933 17.8733C24.2433 18.34 24.1967 18.9933 23.7883 19.4017L22.9483 20.2417C22.4933 20.6967 21.7583 20.6967 21.3033 20.2533C18.7367 17.7683 18.6667 14.6533 18.6667 14.0117C18.6667 13.37 18.7367 10.255 21.3033 7.77C21.7583 7.32667 22.4933 7.33833 22.9483 7.78167L23.7883 8.62167C24.1967 9.03 24.2433 9.68333 23.8933 10.15L23.0883 11.2117C22.9797 11.3566 22.8387 11.4742 22.6767 11.5552C22.5148 11.6362 22.3361 11.6783 22.155 11.6783H20.825C20.5683 12.4133 20.4167 13.195 20.4167 14.0117C20.4167 14.8283 20.5683 15.61 20.825 16.345Z" fill="#DE3B40"/>
</g>
<defs>
<clipPath id="clip0_110_810">
<rect width="28" height="28" fill="white"/>
</clipPath>
</defs>
</svg>
