<svg width="116" height="105" viewBox="0 0 116 105" fill="none" xmlns="http://www.w3.org/2000/svg">
<path d="M2.784 30C2.57067 30 2.38933 29.9253 2.24 29.776C2.09067 29.6267 2.016 29.4347 2.016 29.2V14.16C2.016 13.9253 2.09067 13.7333 2.24 13.584C2.38933 13.4347 2.57067 13.36 2.784 13.36H5.92C6.15467 13.36 6.34667 13.4347 6.496 13.584C6.64533 13.7333 6.72 13.9253 6.72 14.16V15.408C7.27467 14.7253 7.98933 14.16 8.864 13.712C9.73867 13.264 10.8053 13.04 12.064 13.04C13.3227 13.04 14.4213 13.328 15.36 13.904C16.32 14.4587 17.0667 15.28 17.6 16.368C18.1547 17.4347 18.432 18.736 18.432 20.272V29.2C18.432 29.4347 18.3467 29.6267 18.176 29.776C18.0267 29.9253 17.8453 30 17.632 30H14.24C14.0053 30 13.8133 29.9253 13.664 29.776C13.5147 29.6267 13.44 29.4347 13.44 29.2V20.464C13.44 19.3333 13.1627 18.4587 12.608 17.84C12.0747 17.2 11.2853 16.88 10.24 16.88C9.23733 16.88 8.43733 17.2 7.84 17.84C7.24267 18.4587 6.944 19.3333 6.944 20.464V29.2C6.944 29.4347 6.86933 29.6267 6.72 29.776C6.57067 29.9253 6.38933 30 6.176 30H2.784ZM29.69 30.32C27.2367 30.32 25.2847 29.6373 23.834 28.272C22.4047 26.9067 21.6473 24.9227 21.562 22.32C21.562 22.1493 21.562 21.9253 21.562 21.648C21.562 21.3493 21.562 21.1147 21.562 20.944C21.6473 19.3013 22.0207 17.8933 22.682 16.72C23.3433 15.5253 24.2713 14.6187 25.466 14C26.6607 13.36 28.058 13.04 29.658 13.04C31.45 13.04 32.9433 13.4133 34.138 14.16C35.354 14.8853 36.2607 15.888 36.858 17.168C37.4767 18.4267 37.786 19.8773 37.786 21.52V22.256C37.786 22.4693 37.7007 22.6507 37.53 22.8C37.3807 22.9493 37.1993 23.024 36.986 23.024H26.522C26.522 23.0453 26.522 23.088 26.522 23.152C26.522 23.1947 26.522 23.2373 26.522 23.28C26.5433 23.9627 26.6713 24.592 26.906 25.168C27.162 25.7227 27.514 26.1707 27.962 26.512C28.4313 26.8533 28.986 27.024 29.626 27.024C30.1593 27.024 30.5967 26.9493 30.938 26.8C31.2793 26.6507 31.5567 26.4693 31.77 26.256C32.0047 26.0427 32.1753 25.8613 32.282 25.712C32.474 25.4987 32.6233 25.3707 32.73 25.328C32.858 25.264 33.05 25.232 33.306 25.232H36.634C36.8473 25.232 37.018 25.296 37.146 25.424C37.2953 25.5307 37.3593 25.6907 37.338 25.904C37.3167 26.2453 37.1353 26.672 36.794 27.184C36.474 27.6747 35.994 28.1653 35.354 28.656C34.714 29.1253 33.914 29.52 32.954 29.84C32.0153 30.16 30.9273 30.32 29.69 30.32ZM26.522 20.112H32.794V20.048C32.794 19.28 32.666 18.6187 32.41 18.064C32.1753 17.488 31.8233 17.04 31.354 16.72C30.8847 16.4 30.3193 16.24 29.658 16.24C28.9967 16.24 28.4313 16.4 27.962 16.72C27.4927 17.04 27.13 17.488 26.874 18.064C26.6393 18.6187 26.522 19.28 26.522 20.048V20.112ZM45.0608 30C44.7621 30 44.5274 29.9253 44.3568 29.776C44.2074 29.6267 44.0901 29.4347 44.0048 29.2L39.4288 14.384C39.3861 14.2773 39.3648 14.1707 39.3648 14.064C39.3648 13.872 39.4288 13.712 39.5568 13.584C39.7061 13.4347 39.8768 13.36 40.0688 13.36H42.8848C43.1621 13.36 43.3754 13.4347 43.5248 13.584C43.6741 13.7333 43.7701 13.872 43.8128 14L46.7248 23.888L49.8288 14.064C49.8714 13.9147 49.9674 13.7653 50.1168 13.616C50.2874 13.4453 50.5221 13.36 50.8208 13.36H52.6448C52.9434 13.36 53.1674 13.4453 53.3168 13.616C53.4874 13.7653 53.5941 13.9147 53.6368 14.064L56.7408 23.888L59.6528 14C59.6741 13.872 59.7594 13.7333 59.9088 13.584C60.0794 13.4347 60.2928 13.36 60.5488 13.36H63.3648C63.5568 13.36 63.7168 13.4347 63.8448 13.584C63.9941 13.712 64.0688 13.872 64.0688 14.064C64.0688 14.1707 64.0581 14.2773 64.0368 14.384L59.4288 29.2C59.3648 29.4347 59.2474 29.6267 59.0768 29.776C58.9274 29.9253 58.7034 30 58.4048 30H55.9408C55.6421 30 55.4074 29.9253 55.2368 29.776C55.0661 29.6267 54.9381 29.4347 54.8528 29.2L51.7488 19.728L48.5808 29.2C48.5168 29.4347 48.3994 29.6267 48.2288 29.776C48.0581 29.9253 47.8234 30 47.5248 30H45.0608ZM73.1385 30.32C71.8158 30.32 70.6745 30.1707 69.7145 29.872C68.7758 29.552 68.0078 29.168 67.4105 28.72C66.8345 28.272 66.3972 27.824 66.0985 27.376C65.8212 26.9067 65.6718 26.512 65.6505 26.192C65.6292 25.9573 65.7038 25.7653 65.8745 25.616C66.0452 25.4667 66.2158 25.392 66.3865 25.392H69.4905C69.5545 25.392 69.6185 25.4027 69.6825 25.424C69.7465 25.4453 69.8105 25.4987 69.8745 25.584C70.1518 25.776 70.4398 26 70.7385 26.256C71.0372 26.4907 71.3785 26.6933 71.7625 26.864C72.1678 27.0347 72.6692 27.12 73.2665 27.12C73.9705 27.12 74.5678 26.9813 75.0585 26.704C75.5492 26.4053 75.7945 25.9893 75.7945 25.456C75.7945 25.072 75.6772 24.752 75.4425 24.496C75.2292 24.24 74.8132 24.0053 74.1945 23.792C73.5758 23.5787 72.6585 23.344 71.4425 23.088C70.2905 22.832 69.3092 22.4907 68.4985 22.064C67.6878 21.6373 67.0798 21.104 66.6745 20.464C66.2692 19.8027 66.0665 19.0133 66.0665 18.096C66.0665 17.264 66.3225 16.464 66.8345 15.696C67.3678 14.928 68.1465 14.2987 69.1705 13.808C70.1945 13.296 71.4745 13.04 73.0105 13.04C74.1838 13.04 75.2078 13.1893 76.0825 13.488C76.9785 13.7653 77.7252 14.128 78.3225 14.576C78.9198 15.0027 79.3678 15.4507 79.6665 15.92C79.9865 16.368 80.1572 16.7627 80.1785 17.104C80.1998 17.3173 80.1358 17.4987 79.9865 17.648C79.8372 17.7973 79.6665 17.872 79.4745 17.872H76.6265C76.5198 17.872 76.4238 17.8613 76.3385 17.84C76.2532 17.7973 76.1785 17.744 76.1145 17.68C75.8585 17.5093 75.5918 17.3173 75.3145 17.104C75.0585 16.8693 74.7492 16.6667 74.3865 16.496C74.0238 16.3253 73.5545 16.24 72.9785 16.24C72.2745 16.24 71.7305 16.4 71.3465 16.72C70.9838 17.0187 70.8025 17.4027 70.8025 17.872C70.8025 18.1707 70.8985 18.448 71.0905 18.704C71.2825 18.96 71.6772 19.1947 72.2745 19.408C72.8718 19.6213 73.7785 19.8453 74.9945 20.08C76.4452 20.336 77.5972 20.72 78.4505 21.232C79.3038 21.744 79.9118 22.3413 80.2745 23.024C80.6585 23.6853 80.8505 24.4 80.8505 25.168C80.8505 26.1707 80.5518 27.0667 79.9545 27.856C79.3572 28.624 78.4825 29.232 77.3305 29.68C76.1998 30.1067 74.8025 30.32 73.1385 30.32Z" fill="#CA9410"/>
<path d="M0 33H101C109.284 33 116 39.7157 116 48V94H15C6.71573 94 0 87.2843 0 79V33Z" fill="#CA9410"/>
<path d="M32 57H64L68 52.5L73 49L79 47H98V57H115V93H84.5L81.5 97L75.5 101L69 104.5H49V93H32V57Z" fill="#FF0000"/>
<path d="M34 60H65L69.5 55L74 51.5L79.5 49H96.5V60H113V90H83L79.5 95L74.5 98.5L69.5 102H50.5V90H34V60Z" fill="white"/>
<path d="M39.168 86C38.9333 86 38.7413 85.9253 38.592 85.776C38.4427 85.6267 38.368 85.4347 38.368 85.2V64.4C38.368 64.1653 38.4427 63.9733 38.592 63.824C38.7413 63.6747 38.9333 63.6 39.168 63.6H48.672C50.4427 63.6 51.8933 63.856 53.024 64.368C54.1547 64.88 54.9867 65.6053 55.52 66.544C56.0747 67.4827 56.352 68.5813 56.352 69.84C56.352 70.6293 56.2027 71.3227 55.904 71.92C55.6267 72.5173 55.2747 73.008 54.848 73.392C54.4427 73.776 54.048 74.064 53.664 74.256C54.496 74.64 55.2213 75.28 55.84 76.176C56.48 77.0507 56.8 78.096 56.8 79.312C56.8 80.656 56.5013 81.8293 55.904 82.832C55.3067 83.8347 54.4213 84.6133 53.248 85.168C52.0747 85.7227 50.6453 86 48.96 86H39.168ZM43.456 82.256H48.352C49.3973 82.256 50.1867 81.968 50.72 81.392C51.2533 80.7947 51.52 80.0907 51.52 79.28C51.52 78.448 51.2427 77.7547 50.688 77.2C50.1547 76.624 49.376 76.336 48.352 76.336H43.456V82.256ZM43.456 72.656H48.064C49.0667 72.656 49.8133 72.4107 50.304 71.92C50.816 71.408 51.072 70.7573 51.072 69.968C51.072 69.1787 50.816 68.5493 50.304 68.08C49.8133 67.5893 49.0667 67.344 48.064 67.344H43.456V72.656Z" fill="#FF0000"/>
<path d="M105.952 80.44H111.744C111.979 80.44 112.181 80.5253 112.352 80.696C112.523 80.8667 112.608 81.0693 112.608 81.304V86.136C112.608 86.3707 112.523 86.5733 112.352 86.744C112.181 86.9147 111.979 87 111.744 87H91.456C91.2213 87 91.0187 86.9147 90.848 86.744C90.6773 86.5733 90.592 86.3707 90.592 86.136V81.304C90.592 81.0693 90.6773 80.8667 90.848 80.696C91.0187 80.5253 91.2213 80.44 91.456 80.44H97.312V71.16H91.456C91.2213 71.16 91.0187 71.0747 90.848 70.904C90.6773 70.7333 90.592 70.5307 90.592 70.296V65.464C90.592 65.2293 90.6773 65.0267 90.848 64.856C91.0187 64.6853 91.2213 64.6 91.456 64.6H111.744C111.979 64.6 112.181 64.6853 112.352 64.856C112.523 65.0267 112.608 65.2293 112.608 65.464V70.296C112.608 70.5307 112.523 70.7333 112.352 70.904C112.181 71.0747 111.979 71.16 111.744 71.16H105.952V80.44Z" fill="#FF0000"/>
<path d="M69 72L71.5 63.5L75 56.5L81 52H91V63.5L84.5 64.5L81 69.5L78.5 78L76 87.5L72.5 94L69 97L64.5 99H55V87H62L65.5 82L67 78L69 72Z" fill="#FF0000"/>
</svg>
