<svg width="28" height="28" viewBox="0 0 28 28" fill="none" xmlns="http://www.w3.org/2000/svg">
<path d="M22.1667 4.66683H21V3.50016C21 2.8585 20.475 2.3335 19.8333 2.3335C19.1917 2.3335 18.6667 2.8585 18.6667 3.50016V4.66683L9.33333 4.66683V3.50016C9.33333 2.8585 8.80833 2.3335 8.16667 2.3335C7.525 2.3335 7 2.8585 7 3.50016V4.66683L5.83333 4.66683C4.53833 4.66683 3.51167 5.71683 3.51167 7.00016L3.5 23.3335C3.5 23.9523 3.74583 24.5458 4.18342 24.9834C4.621 25.421 5.21449 25.6668 5.83333 25.6668L22.1667 25.6668C23.45 25.6668 24.5 24.6168 24.5 23.3335L24.5 7.00016C24.5 5.71683 23.45 4.66683 22.1667 4.66683ZM22.1667 11.6668V23.3335L5.83333 23.3335L5.83333 11.6668L22.1667 11.6668ZM9.33333 14.0002C9.975 14.0002 10.5 14.5252 10.5 15.1668C10.5 15.8085 9.975 16.3335 9.33333 16.3335C8.69167 16.3335 8.16667 15.8085 8.16667 15.1668C8.16667 14.5252 8.69167 14.0002 9.33333 14.0002ZM14 14.0002C14.6417 14.0002 15.1667 14.5252 15.1667 15.1668C15.1667 15.8085 14.6417 16.3335 14 16.3335C13.3583 16.3335 12.8333 15.8085 12.8333 15.1668C12.8333 14.5252 13.3583 14.0002 14 14.0002ZM18.6667 14.0002C19.3083 14.0002 19.8333 14.5252 19.8333 15.1668C19.8333 15.8085 19.3083 16.3335 18.6667 16.3335C18.025 16.3335 17.5 15.8085 17.5 15.1668C17.5 14.5252 18.025 14.0002 18.6667 14.0002Z" fill="#379AE6"/>
</svg>
