<svg width="28" height="28" viewBox="0 0 28 28" fill="none" xmlns="http://www.w3.org/2000/svg">
<path d="M24.5003 11.6668L24.5003 4.66683C24.5003 3.3835 23.4503 2.3335 22.167 2.3335L3.50033 2.3335C2.21699 2.3335 1.17866 3.3835 1.17866 4.66683L1.16699 18.6668C1.16699 19.9502 2.21699 21.0002 3.50033 21.0002L16.3337 21.0002L16.3337 15.1668C16.3337 13.2302 17.897 11.6668 19.8337 11.6668H24.5003ZM13.452 12.4485C13.0787 12.6818 12.5887 12.6818 12.2153 12.4485L3.96699 7.29183C3.85001 7.22616 3.74756 7.13743 3.66586 7.03103C3.58416 6.92462 3.5249 6.80274 3.49166 6.67276C3.45843 6.54279 3.45191 6.40742 3.47251 6.27485C3.4931 6.14229 3.54038 6.01528 3.61149 5.90151C3.68259 5.78775 3.77604 5.68959 3.88617 5.61299C3.99631 5.53639 4.12084 5.48293 4.25224 5.45584C4.38363 5.42876 4.51916 5.42862 4.65061 5.45544C4.78206 5.48225 4.9067 5.53545 5.01699 5.61183L12.8337 10.5002L20.6503 5.61183C20.7606 5.53545 20.8853 5.48225 21.0167 5.45544C21.1482 5.42862 21.2837 5.42876 21.4151 5.45584C21.5465 5.48293 21.671 5.53639 21.7811 5.61299C21.8913 5.68959 21.9847 5.78775 22.0558 5.90151C22.1269 6.01528 22.1742 6.14229 22.1948 6.27485C22.2154 6.40742 22.2089 6.54279 22.1757 6.67276C22.1424 6.80274 22.0832 6.92462 22.0015 7.03103C21.9198 7.13743 21.8173 7.22616 21.7003 7.29183L13.452 12.4485Z" fill="#379AE6"/>
<path d="M25.6667 16.3335C25.025 16.3335 24.5 16.8585 24.5 17.5002V21.0002C24.5 22.2835 23.45 23.3335 22.1667 23.3335C20.8833 23.3335 19.8333 22.2835 19.8333 21.0002L19.8333 15.7502C19.8333 15.4235 20.09 15.1668 20.4167 15.1668C20.7433 15.1668 21 15.4235 21 15.7502V19.8335C21 20.4752 21.525 21.0002 22.1667 21.0002C22.8083 21.0002 23.3333 20.4752 23.3333 19.8335V15.7502C23.3333 14.9766 23.026 14.2347 22.4791 13.6878C21.9321 13.1408 21.1902 12.8335 20.4167 12.8335C19.6431 12.8335 18.9013 13.1408 18.3543 13.6878C17.8073 14.2347 17.5 14.9766 17.5 15.7502L17.5 21.0002C17.5 23.5785 19.5883 25.6668 22.1667 25.6668C24.745 25.6668 26.8333 23.5785 26.8333 21.0002V17.5002C26.8333 16.8585 26.3083 16.3335 25.6667 16.3335Z" fill="#379AE6"/>
</svg>
