<svg width="29" height="28" viewBox="0 0 29 28" fill="none" xmlns="http://www.w3.org/2000/svg">
<path d="M5.01562 23.1001V24.5001C5.01562 24.9201 5.29562 25.2001 5.71562 25.2001L22.5156 25.2001C22.9356 25.2001 23.2156 24.9201 23.2156 24.5001V23.1001L5.01562 23.1001Z" fill="#565D6D"/>
<path d="M18.3154 3.91992V7.69992L22.0954 7.69992L18.3154 3.91992Z" fill="#565D6D"/>
<path d="M16.8454 15.75H16.5654V16.66H16.7754C16.9154 16.66 17.0554 16.59 17.1954 16.52C17.3354 16.45 17.3354 16.31 17.3354 16.17C17.2654 15.89 17.1254 15.75 16.8454 15.75Z" fill="#565D6D"/>
<path d="M24.615 11.8998H23.215L23.215 9.0998L17.615 9.0998C17.195 9.0998 16.915 8.8198 16.915 8.3998V2.7998L5.71504 2.7998C5.29504 2.7998 5.01504 3.0798 5.01504 3.4998L5.01504 11.8998H3.61504C3.19504 11.8998 2.91504 12.1798 2.91504 12.5998L2.91504 20.9998C2.91504 21.4198 3.19504 21.6998 3.61504 21.6998L24.615 21.6998C25.035 21.6998 25.315 21.4198 25.315 20.9998V12.5998C25.315 12.1798 25.035 11.8998 24.615 11.8998ZM12.925 18.8998L9.84504 18.8998V18.1998L11.595 15.7498H9.84504V14.9098H12.855V15.5398L11.105 17.9898H12.855V18.8998H12.925ZM14.605 18.8998H13.485V14.9098L14.605 14.9098V18.8998ZM17.965 17.2198C17.685 17.4298 17.335 17.5698 16.845 17.5698H16.565V18.8998H15.515V14.9098H16.915C17.405 14.9098 17.825 15.0498 18.035 15.2598C18.245 15.4698 18.385 15.8198 18.385 16.1698C18.385 16.5898 18.245 16.9398 17.965 17.2198Z" fill="#565D6D"/>
</svg>
