<svg width="16" height="16" viewBox="0 0 16 16" fill="none" xmlns="http://www.w3.org/2000/svg">
<path d="M11.48 4.52L14 2" stroke="#0457A9" stroke-width="0.96" stroke-miterlimit="10"/>
<path d="M5.2 9.99998C6.96731 9.99998 8.4 8.56729 8.4 6.79998C8.4 5.03266 6.96731 3.59998 5.2 3.59998C3.43269 3.59998 2 5.03266 2 6.79998C2 8.56729 3.43269 9.99998 5.2 9.99998Z" stroke="#0457A9" stroke-width="0.96" stroke-miterlimit="10" stroke-linecap="square"/>
<path d="M9.2 9.99998C10.9673 9.99998 12.4 8.56729 12.4 6.79998C12.4 5.03266 10.9673 3.59998 9.2 3.59998C7.43269 3.59998 6 5.03266 6 6.79998C6 8.56729 7.43269 9.99998 9.2 9.99998Z" stroke="#0457A9" stroke-width="0.96" stroke-miterlimit="10" stroke-linecap="square"/>
<path d="M5.19995 10L5.19995 13.6" stroke="#0457A9" stroke-width="0.96" stroke-miterlimit="10" stroke-linecap="square"/>
<path d="M12 2L14 2V4" stroke="#0457A9" stroke-width="0.96" stroke-miterlimit="10" stroke-linecap="square"/>
<path d="M4 12.4H6.4" stroke="#0457A9" stroke-width="0.96" stroke-miterlimit="10" stroke-linecap="square"/>
</svg>
