<svg width="16" height="16" viewBox="0 0 16 16" fill="none" xmlns="http://www.w3.org/2000/svg">
<path d="M12.3999 2.40002L3.5999 2.40002C2.93716 2.40002 2.3999 2.93728 2.3999 3.60002L2.3999 12.4C2.3999 13.0628 2.93716 13.6 3.5999 13.6L12.3999 13.6C13.0626 13.6 13.5999 13.0628 13.5999 12.4L13.5999 3.60002C13.5999 2.93728 13.0626 2.40002 12.3999 2.40002Z" stroke="#0556A9" stroke-width="0.96" stroke-miterlimit="10" stroke-linecap="square"/>
<path d="M7.2 4L4 4L4 7.2L7.2 7.2L7.2 4Z" stroke="#0556A9" stroke-width="0.96" stroke-miterlimit="10" stroke-linecap="square"/>
<path d="M12 4L8.80005 4L8.80005 12H12L12 4Z" stroke="#0556A9" stroke-width="0.96" stroke-miterlimit="10" stroke-linecap="square"/>
<path d="M7.2 8.80005H4L4 12H7.2L7.2 8.80005Z" stroke="#0556A9" stroke-width="0.96" stroke-miterlimit="10" stroke-linecap="square"/>
</svg>
