<svg width="16" height="16" viewBox="0 0 16 16" fill="none" xmlns="http://www.w3.org/2000/svg">
<path d="M8.0001 14C8.0001 14 3.6001 10 3.6001 6.4C3.6001 5.23305 4.06367 4.11389 4.88883 3.28873C5.71399 2.46357 6.83315 2 8.0001 2C9.16705 2 10.2862 2.46357 11.1114 3.28873C11.9365 4.11389 12.4001 5.23305 12.4001 6.4C12.3936 6.94312 12.3068 7.48229 12.1425 8" stroke="#0457A9" stroke-width="0.8" stroke-linecap="round" stroke-linejoin="round"/>
<path d="M8.00005 7.59995C8.66279 7.59995 9.20005 7.06269 9.20005 6.39995C9.20005 5.73721 8.66279 5.19995 8.00005 5.19995C7.33731 5.19995 6.80005 5.73721 6.80005 6.39995C6.80005 7.06269 7.33731 7.59995 8.00005 7.59995Z" stroke="#0457A9" stroke-width="0.8" stroke-linecap="round" stroke-linejoin="round"/>
<path d="M8.3999 10.8L9.9999 12.4L13.1999 9.19995" stroke="#0457A9" stroke-width="0.8" stroke-linecap="round" stroke-linejoin="round"/>
</svg>
