<svg width="16" height="16" viewBox="0 0 16 16" fill="none" xmlns="http://www.w3.org/2000/svg">
<path d="M8.3999 2L8.3999 7.6L6.3999 6L4.3999 7.6L4.3999 2" stroke="#0556A9" stroke-width="0.8" stroke-linecap="round" stroke-linejoin="round"/>
<path d="M2 12.8L2 3.6C2 3.17565 2.16857 2.76869 2.46863 2.46863C2.76869 2.16857 3.17565 2 3.6 2L12.4 2C12.8243 2 13.2313 2.16857 13.5314 2.46863C13.8314 2.76869 14 3.17565 14 3.6L14 12.8" stroke="#0556A9" stroke-width="0.8" stroke-linecap="round" stroke-linejoin="round"/>
<path d="M12.8 11.6L3.2 11.6C2.53726 11.6 2 12.1372 2 12.8C2 13.4627 2.53726 14 3.2 14L12.8 14C13.4627 14 14 13.4627 14 12.8C14 12.1372 13.4627 11.6 12.8 11.6Z" stroke="#0556A9" stroke-width="0.8" stroke-linecap="round" stroke-linejoin="round"/>
</svg>
