<svg width="16" height="16" viewBox="0 0 16 16" fill="none" xmlns="http://www.w3.org/2000/svg">
<path d="M7.20005 4.80005V7.20005H4.80005" stroke="#0556A9" stroke-width="0.96" stroke-miterlimit="10" stroke-linecap="square"/>
<path d="M9.19995 9.59998V11.2C9.19995 11.8628 10.2744 12.4 11.6 12.4C12.9256 12.4 14 11.8628 14 11.2V9.59998" stroke="#0556A9" stroke-width="0.96" stroke-miterlimit="10"/>
<path d="M9.19995 11.2V12.8C9.19995 13.4628 10.2744 14 11.6 14C12.9256 14 14 13.4628 14 12.8V11.2" stroke="#0556A9" stroke-width="0.96" stroke-miterlimit="10"/>
<path d="M11.6 10.8C12.9254 10.8 14 10.2628 14 9.60002C14 8.93728 12.9254 8.40002 11.6 8.40002C10.2745 8.40002 9.19995 8.93728 9.19995 9.60002C9.19995 10.2628 10.2745 10.8 11.6 10.8Z" stroke="#0556A9" stroke-width="0.96" stroke-miterlimit="10" stroke-linecap="square"/>
<path d="M7.6 12.3848C7.468 12.3948 7.3344 12.4 7.2 12.4C4.328 12.4 2 10.072 2 7.2C2 4.328 4.328 2 7.2 2C9.9372 2 12.1808 4.1152 12.3848 6.8" stroke="#0556A9" stroke-width="0.96" stroke-miterlimit="10" stroke-linecap="square"/>
</svg>
